<svg width="120" height="120" viewBox="0 0 120 120" fill="none" xmlns="http://www.w3.org/2000/svg">
<path d="M30.5 16H90.5V94H20.5V26C20.5 20.4772 24.9772 16 30.5 16Z" stroke="black" stroke-width="2"/>
<path d="M37 31V16M37 86V36" stroke="black" stroke-width="2"/>
<mask id="path-3-inside-1_581_247" fill="white">
<path d="M100.5 33V105H29.5C23.9772 105 19.5 100.523 19.5 95C19.5 89.4771 23.9772 85 29.5 85H89.5V15H91.5L100.5 33Z"/>
</mask>
<path d="M100.5 33V105H29.5C23.9772 105 19.5 100.523 19.5 95C19.5 89.4771 23.9772 85 29.5 85H89.5V15H91.5L100.5 33Z" fill="white"/>
<path d="M100.5 33H102.5V32.5279L102.289 32.1056L100.5 33ZM100.5 105V107H102.5V105H100.5ZM29.5 85V83V85ZM89.5 85V87H91.5V85H89.5ZM89.5 15V13H87.5V15H89.5ZM91.5 15L93.2889 14.1056L92.7361 13H91.5V15ZM100.5 33H98.5V105H100.5H102.5V33H100.5ZM100.5 105V103H29.5V105V107H100.5V105ZM29.5 105V103C25.0817 103 21.5 99.4183 21.5 95H19.5H17.5C17.5 101.627 22.8726 107 29.5 107V105ZM19.5 95H21.5C21.5 90.5817 25.0817 87 29.5 87V85V83C22.8726 83 17.5 88.3726 17.5 95H19.5ZM29.5 85V87H89.5V85V83H29.5V85ZM89.5 85H91.5V15H89.5H87.5V85H89.5ZM89.5 15V17H91.5V15V13H89.5V15ZM91.5 15L89.7111 15.8944L98.7111 33.8944L100.5 33L102.289 32.1056L93.2889 14.1056L91.5 15Z" fill="black" mask="url(#path-3-inside-1_581_247)"/>
<path d="M29 95H90" stroke="black" stroke-width="2"/>
</svg>
