<svg width="120" height="120" viewBox="0 0 120 120" fill="none" xmlns="http://www.w3.org/2000/svg">
<mask id="path-1-inside-1_581_275" fill="white">
<path d="M102.698 92.25H55.2363L78.9678 26.2939L102.698 92.25ZM58.0811 90.25H99.8535L78.9668 32.2002L58.0811 90.25Z"/>
</mask>
<path d="M102.698 92.25V94.25H105.543L104.58 91.5729L102.698 92.25ZM55.2363 92.25L53.3544 91.5729L52.3912 94.25H55.2363V92.25ZM78.9678 26.2939L80.8497 25.6169L78.9678 20.3864L77.0859 25.6168L78.9678 26.2939ZM58.0811 90.25L56.1992 89.5729L55.236 92.25H58.0811V90.25ZM99.8535 90.25V92.25H102.699L101.735 89.5729L99.8535 90.25ZM78.9668 32.2002L80.8487 31.5231L78.9668 26.2927L77.0849 31.5231L78.9668 32.2002ZM102.698 92.25V90.25H55.2363V92.25V94.25H102.698V92.25ZM55.2363 92.25L57.1182 92.9271L80.8497 26.9711L78.9678 26.2939L77.0859 25.6168L53.3544 91.5729L55.2363 92.25ZM78.9678 26.2939L77.0859 26.971L100.816 92.9271L102.698 92.25L104.58 91.5729L80.8497 25.6169L78.9678 26.2939ZM58.0811 90.25V92.25H99.8535V90.25V88.25H58.0811V90.25ZM99.8535 90.25L101.735 89.5729L80.8487 31.5231L78.9668 32.2002L77.0849 32.8773L97.9716 90.9271L99.8535 90.25ZM78.9668 32.2002L77.0849 31.5231L56.1992 89.5729L58.0811 90.25L59.963 90.9271L80.8487 32.8773L78.9668 32.2002Z" fill="black" mask="url(#path-1-inside-1_581_275)"/>
<mask id="path-3-inside-2_581_275" fill="white">
<path d="M76.6035 92.25H17L46.8018 11L76.6035 92.25Z"/>
</mask>
<path d="M76.6035 92.25H17L46.8018 11L76.6035 92.25Z" fill="white"/>
<path d="M76.6035 92.25V94.25H79.4674L78.4812 91.5613L76.6035 92.25ZM17 92.25L15.1223 91.5613L14.1361 94.25H17V92.25ZM46.8018 11L48.6794 10.3113L46.8018 5.19208L44.9241 10.3113L46.8018 11ZM76.6035 92.25V90.25H17V92.25V94.25H76.6035V92.25ZM17 92.25L18.8777 92.9387L48.6794 11.6887L46.8018 11L44.9241 10.3113L15.1223 91.5613L17 92.25ZM46.8018 11L44.9241 11.6887L74.7258 92.9387L76.6035 92.25L78.4812 91.5613L48.6794 10.3113L46.8018 11Z" fill="black" mask="url(#path-3-inside-2_581_275)"/>
<path d="M46.8008 90.6567V108.5" stroke="black" stroke-width="2"/>
<path d="M78.2363 90.6567V108.5" stroke="black" stroke-width="2"/>
</svg>
