<svg width="123" height="40" viewBox="0 0 123 40" fill="none" xmlns="http://www.w3.org/2000/svg">
<g clip-path="url(#clip0_475_160)">
<path d="M22.0013 13C20.0632 15.9117 17.6798 18.1984 14.668 20C17.6798 21.7925 20.0632 24.0792 22.0013 27C25.0013 25 27.3346 23 29.3346 20C27.3346 17 25.0013 15 22.0013 13Z" fill="#005CB9"/>
<path d="M29.3333 20C28.2869 21.4013 27.2157 22.7115 25.96 23.9217C24.7498 25.0955 23.3649 26.0173 22 27C24.4477 30.6852 25.96 35.2593 25.96 40L35.4959 33.7761C34.5314 28.6806 32.327 24.0036 29.3333 20Z" fill="#999999"/>
<path d="M29.3333 20C28.2869 18.5987 27.2157 17.2884 25.96 16.0783C24.7498 14.9045 23.3649 13.9827 22 13C24.4386 9.31483 25.96 4.74067 25.96 0L35.4959 6.22384C34.5314 11.3194 32.327 15.9964 29.3333 20Z" fill="#00A7E1"/>
<path d="M2.62056 6.60601L0 8.30755V14.2857L2.62056 12.5751V39.6724L12.7389 33.0755V5.96906V0L2.62056 6.60601Z" fill="#999999"/>
<path d="M63.6445 31.6198H68.003L68.0212 31.5379L74.2178 8.43506H69.8593L63.6445 31.6198Z" fill="#005CB9"/>
<path d="M64.4075 8.58966L62.2419 16.6515H60.6677C61.6049 14.768 62.3784 12.6843 63.0335 10.3185L63.0699 10.182H52.6604L51.7414 13.6033H57.847C57.5922 14.3494 57.301 15.0592 56.9461 15.7507C54.6986 15.8872 52.1418 16.0055 50.7314 16.0055H50.6495L49.7578 19.3358H49.8943C51.0681 19.3358 52.9061 19.2721 54.7441 19.1629C52.8515 21.4923 50.422 23.485 47.5558 25.1684L47.4375 25.2321L50.0308 27.7161L50.1036 27.6797C53.9525 25.4504 56.9188 22.7571 59.1845 19.2539L58.8934 20.3276L58.857 20.4641H61.2228L58.4475 30.819H62.7332L62.7514 30.7371L68.6841 8.58057H64.3984L64.4075 8.58966Z" fill="#005CB9"/>
<path d="M93.8163 8.43506L87.6016 31.6198H92.1239L92.1512 31.5379L98.3386 8.43506H93.8163Z" fill="#005CB9"/>
<path d="M89.4509 14.7137C89.4509 13.0031 88.9414 11.711 88.0132 10.8557C87.0851 10.0003 85.7658 9.58179 84.1552 9.58179C79.9878 9.58179 76.2844 12.2842 74.7921 17.862C74.4555 19.0995 74.3008 20.2005 74.3008 21.165C74.3008 22.9212 74.8285 24.2133 75.7839 25.0686C76.7394 25.9239 78.0951 26.3243 79.7239 26.3243C83.8185 26.3243 87.4218 23.7128 88.9687 17.9257C89.2871 16.7246 89.4418 15.6509 89.4418 14.7137H89.4509ZM80.6429 22.6209C79.4691 22.6118 78.814 21.9476 78.8049 20.3643C78.8049 19.7183 78.9232 18.9175 79.1779 17.9712C80.0788 14.6136 81.5528 13.2579 83.2089 13.267C84.3008 13.2761 84.9832 13.8857 85.0014 15.5054C85.0014 16.1514 84.8831 16.9521 84.6284 17.9166C83.7275 21.2742 82.1807 22.6209 80.652 22.6209H80.6429Z" fill="#005CB9"/>
<path d="M107.11 17.6346C110.741 17.6346 114.235 16.1241 115.008 13.2852C115.108 12.9121 115.154 12.5573 115.154 12.2297C115.154 11.0559 114.535 10.1642 113.516 9.59092C112.497 9.01767 111.077 8.7356 109.439 8.7356C105.681 8.7356 102.278 10.1733 101.459 13.2306C101.368 13.5582 101.332 13.8675 101.332 14.1678C101.341 16.4517 103.843 17.6346 107.119 17.6437L107.11 17.6346ZM110.868 13.176C110.659 13.9767 109.458 14.7229 107.829 14.7138C107.101 14.7138 106.528 14.5682 106.155 14.3407C105.782 14.1132 105.6 13.8129 105.6 13.4854L105.636 13.2306C105.873 12.3116 107.055 11.6382 108.711 11.6473C109.43 11.6473 109.985 11.7747 110.358 11.9931C110.731 12.2115 110.913 12.5027 110.913 12.8666L110.868 13.1851V13.176Z" fill="#005CB9"/>
<path d="M109.474 21.7927L108.691 24.7044H113.623L113.305 25.8691L113.268 26.0056H117.681L117.7 25.9237L122.386 8.43506H117.982L114.397 21.7927H109.474Z" fill="#005CB9"/>
<path d="M105.063 24.6135H100.487L98.7305 31.1558H116.847L116.874 31.0739L117.757 27.78H104.208L105.063 24.6135Z" fill="#005CB9"/>
<path d="M102.651 23.9219H107.083L107.81 21.2104C109.912 21.1194 111.923 20.9556 113.807 20.7281H113.88L114.708 17.6162L114.553 17.6344C109.931 18.1167 105.017 18.1622 99.057 18.1622H98.9751L98.9569 18.2441L98.1289 21.3378H98.2654C100.031 21.3378 101.714 21.3378 103.352 21.3196L102.651 23.931V23.9219Z" fill="#005CB9"/>
</g>
<defs>
<clipPath id="clip0_475_160">
<rect width="123" height="40" fill="white"/>
</clipPath>
</defs>
</svg>
