<svg width="120" height="120" viewBox="0 0 120 120" fill="none" xmlns="http://www.w3.org/2000/svg">
<path d="M99 14H106V21C106 42.5391 88.5391 60 67 60H60V53C60 31.4609 77.4609 14 99 14Z" stroke="black" stroke-width="2"/>
<path d="M99 14H106V21C106 42.5391 88.5391 60 67 60H60V53C60 31.4609 77.4609 14 99 14Z" stroke="black" stroke-width="2"/>
<path d="M21 14C42.5391 14 60 31.4609 60 53V60H53C31.4609 60 14 42.5391 14 21V14H21Z" stroke="black" stroke-width="2"/>
<path d="M21 14C42.5391 14 60 31.4609 60 53V60H53C31.4609 60 14 42.5391 14 21V14H21Z" stroke="black" stroke-width="2"/>
<path d="M60 58.3794V107" stroke="black" stroke-width="2"/>
</svg>
