<svg width="120" height="120" viewBox="0 0 120 120" fill="none" xmlns="http://www.w3.org/2000/svg">
<path d="M7 104H114V106H7V104Z" fill="white"/>
<path d="M7.5 104.5H113.5V105.5H7.5V104.5Z" stroke="#010101"/>
<path d="M93 105H29V29.5939L61 12.1389L93 29.5939V105Z" fill="white"/>
<path d="M61 13.278L30 30.188V104H92V30.187L61 13.278ZM61 11L94 29V106H28V29L61 11Z" fill="#010101"/>
<path d="M79.5 46.5H78.5V41.5H79.5V46.5ZM67.5 46.5H66.5V41.5H67.5V46.5ZM55.5 46.5H54.5V41.5H55.5V46.5ZM43.5 46.5H42.5V41.5H43.5V46.5Z" fill="white"/>
<path d="M80 47H78V41H80V47ZM68 47H66V41H68V47ZM56 47H54V41H56V47ZM44 47H42V41H44V47Z" fill="black"/>
<path d="M79.5 61.5H78.5V56.5H79.5V61.5ZM67.5 61.5H66.5V56.5H67.5V61.5ZM55.5 61.5H54.5V56.5H55.5V61.5ZM43.5 61.5H42.5V56.5H43.5V61.5Z" fill="white"/>
<path d="M80 62H78V56H80V62ZM68 62H66V56H68V62ZM56 62H54V56H56V62ZM44 62H42V56H44V62Z" fill="black"/>
<path d="M28 76H94V78H28V76Z" fill="white"/>
<path d="M28.5 76.5H93.5V77.5H28.5V76.5Z" stroke="black"/>
<path d="M53 88H69V106H53V88Z" fill="white"/>
<path d="M54 89H68V105H54V89Z" stroke="black" stroke-width="2"/>
</svg>
