<svg width="120" height="120" viewBox="0 0 120 120" fill="none" xmlns="http://www.w3.org/2000/svg">
<mask id="path-1-inside-1_616_149" fill="white">
<path d="M69 19.4932C73.7779 20.5634 78.2405 22.4666 82.2275 25.0439L87.9307 19.3418L100.658 32.0693L94.8418 37.8848C97.3102 41.8552 99.1195 46.2771 100.115 51H108.5V69H99.8916C98.8027 73.5896 96.9424 77.8798 94.4551 81.7275L100.658 87.9307L87.9307 100.658L81.6143 94.3418C77.7845 96.7226 73.5349 98.4901 69 99.5059V108.5H51V99.5059C46.4648 98.49 42.2147 96.7229 38.3848 94.3418L32.0693 100.658L19.3408 87.9307L25.543 81.7275C23.0559 77.88 21.1972 73.5892 20.1084 69H11.5V51H19.8848C20.8805 46.2775 22.6881 41.855 25.1562 37.8848L19.3408 32.0693L32.0684 19.3408L37.7715 25.0439C41.7587 22.4664 46.2218 20.5634 51 19.4932V11.5H69V19.4932Z"/>
</mask>
<path d="M69 19.4932C73.7779 20.5634 78.2405 22.4666 82.2275 25.0439L87.9307 19.3418L100.658 32.0693L94.8418 37.8848C97.3102 41.8552 99.1195 46.2771 100.115 51H108.5V69H99.8916C98.8027 73.5896 96.9424 77.8798 94.4551 81.7275L100.658 87.9307L87.9307 100.658L81.6143 94.3418C77.7845 96.7226 73.5349 98.4901 69 99.5059V108.5H51V99.5059C46.4648 98.49 42.2147 96.7229 38.3848 94.3418L32.0693 100.658L19.3408 87.9307L25.543 81.7275C23.0559 77.88 21.1972 73.5892 20.1084 69H11.5V51H19.8848C20.8805 46.2775 22.6881 41.855 25.1562 37.8848L19.3408 32.0693L32.0684 19.3408L37.7715 25.0439C41.7587 22.4664 46.2218 20.5634 51 19.4932V11.5H69V19.4932Z" fill="white"/>
<path d="M69 19.4932H67V21.0947L68.5629 21.4448L69 19.4932ZM82.2275 25.0439L81.1418 26.7236L82.4989 27.6008L83.6416 26.4583L82.2275 25.0439ZM87.9307 19.3418L89.3449 17.9276L87.9308 16.5135L86.5166 17.9275L87.9307 19.3418ZM100.658 32.0693L102.072 33.4837L103.487 32.0695L102.072 30.6551L100.658 32.0693ZM94.8418 37.8848L93.4277 36.4704L92.3052 37.5927L93.1433 38.9407L94.8418 37.8848ZM100.115 51L98.1583 51.4126L98.4929 53H100.115V51ZM108.5 51H110.5V49H108.5V51ZM108.5 69V71H110.5V69H108.5ZM99.8916 69V67H98.3106L97.9456 68.5383L99.8916 69ZM94.4551 81.7275L92.7755 80.6418L91.8981 81.999L93.0409 83.1418L94.4551 81.7275ZM100.658 87.9307L102.072 89.3449L103.487 87.9307L102.072 86.5164L100.658 87.9307ZM87.9307 100.658L86.5164 102.072L87.9307 103.487L89.3449 102.072L87.9307 100.658ZM81.6143 94.3418L83.0285 92.9276L81.9062 91.8053L80.5583 92.6433L81.6143 94.3418ZM69 99.5059L68.5628 97.5542L67 97.9043V99.5059H69ZM69 108.5V110.5H71V108.5H69ZM51 108.5H49V110.5H51V108.5ZM51 99.5059H53V97.9043L51.4372 97.5542L51 99.5059ZM38.3848 94.3418L39.4407 92.6433L38.0927 91.8052L36.9704 92.9277L38.3848 94.3418ZM32.0693 100.658L30.6552 102.072L32.0695 103.487L33.4837 102.072L32.0693 100.658ZM19.3408 87.9307L17.9265 86.5166L16.5125 87.9308L17.9267 89.3449L19.3408 87.9307ZM25.543 81.7275L26.9573 83.1416L28.0998 81.9989L27.2226 80.6418L25.543 81.7275ZM20.1084 69L22.0544 68.5383L21.6894 67H20.1084V69ZM11.5 69H9.5V71H11.5V69ZM11.5 51V49H9.5V51H11.5ZM19.8848 51V53H21.5071L21.8417 51.4126L19.8848 51ZM25.1562 37.8848L26.8548 38.9407L27.6927 37.5928L26.5705 36.4706L25.1562 37.8848ZM19.3408 32.0693L17.9266 30.6552L16.5124 32.0694L17.9266 33.4835L19.3408 32.0693ZM32.0684 19.3408L33.4826 17.9266L32.0683 16.5123L30.6541 17.9267L32.0684 19.3408ZM37.7715 25.0439L36.3573 26.4582L37.5 27.6009L38.8573 26.7235L37.7715 25.0439ZM51 19.4932L51.4371 21.4448L53 21.0947V19.4932H51ZM51 11.5V9.5H49V11.5H51ZM69 11.5H71V9.5H69V11.5ZM69 19.4932L68.5629 21.4448C73.1058 22.4624 77.3493 24.272 81.1418 26.7236L82.2275 25.0439L83.3133 23.3643C79.1317 20.6612 74.4501 18.6644 69.4371 17.5415L69 19.4932ZM82.2275 25.0439L83.6416 26.4583L89.3448 20.7561L87.9307 19.3418L86.5166 17.9275L80.8134 23.6296L82.2275 25.0439ZM87.9307 19.3418L86.5164 20.756L99.244 33.4835L100.658 32.0693L102.072 30.6551L89.3449 17.9276L87.9307 19.3418ZM100.658 32.0693L99.2441 30.655L93.4277 36.4704L94.8418 37.8848L96.2559 39.2991L102.072 33.4837L100.658 32.0693ZM94.8418 37.8848L93.1433 38.9407C95.4914 42.7176 97.2115 46.9224 98.1583 51.4126L100.115 51L102.072 50.5874C101.027 45.6318 99.129 40.9928 96.5403 36.8288L94.8418 37.8848ZM100.115 51V53H108.5V51V49H100.115V51ZM108.5 51H106.5V69H108.5H110.5V51H108.5ZM108.5 69V67H99.8916V69V71H108.5V69ZM99.8916 69L97.9456 68.5383C96.9103 72.9019 95.1416 76.9816 92.7755 80.6418L94.4551 81.7275L96.1347 82.8133C98.7433 78.778 100.695 74.2773 101.838 69.4617L99.8916 69ZM94.4551 81.7275L93.0409 83.1418L99.244 89.3449L100.658 87.9307L102.072 86.5164L95.8693 80.3133L94.4551 81.7275ZM100.658 87.9307L99.244 86.5164L86.5164 99.244L87.9307 100.658L89.3449 102.072L102.072 89.3449L100.658 87.9307ZM87.9307 100.658L89.3449 99.244L83.0285 92.9276L81.6143 94.3418L80.2 95.756L86.5164 102.072L87.9307 100.658ZM81.6143 94.3418L80.5583 92.6433C76.9152 94.9081 72.8743 96.5885 68.5628 97.5542L69 99.5059L69.4372 101.457C74.1955 100.392 78.6537 98.5372 82.6702 96.0403L81.6143 94.3418ZM69 99.5059H67V108.5H69H71V99.5059H69ZM69 108.5V106.5H51V108.5V110.5H69V108.5ZM51 108.5H53V99.5059H51H49V108.5H51ZM51 99.5059L51.4372 97.5542C47.1253 96.5884 43.0839 94.9082 39.4407 92.6433L38.3848 94.3418L37.3288 96.0403C41.3456 98.5375 45.8044 100.392 50.5628 101.457L51 99.5059ZM38.3848 94.3418L36.9704 92.9277L30.655 99.2441L32.0693 100.658L33.4837 102.072L39.7991 95.7559L38.3848 94.3418ZM32.0693 100.658L33.4835 99.2439L20.755 86.5164L19.3408 87.9307L17.9267 89.3449L30.6552 102.072L32.0693 100.658ZM19.3408 87.9307L20.7551 89.3448L26.9573 83.1416L25.543 81.7275L24.1286 80.3134L17.9265 86.5166L19.3408 87.9307ZM25.543 81.7275L27.2226 80.6418C24.857 76.9822 23.0897 72.902 22.0544 68.5383L20.1084 69L18.1624 69.4617C19.3048 74.2765 21.2548 78.7778 23.8633 82.8133L25.543 81.7275ZM20.1084 69V67H11.5V69V71H20.1084V69ZM11.5 69H13.5V51H11.5H9.5V69H11.5ZM11.5 51V53H19.8848V51V49H11.5V51ZM19.8848 51L21.8417 51.4126C22.7885 46.9223 24.5072 42.7169 26.8548 38.9407L25.1562 37.8848L23.4577 36.8288C20.869 40.993 18.9724 45.6326 17.9278 50.5874L19.8848 51ZM25.1562 37.8848L26.5705 36.4706L20.755 30.6551L19.3408 32.0693L17.9266 33.4835L23.742 39.299L25.1562 37.8848ZM19.3408 32.0693L20.7551 33.4835L33.4826 20.755L32.0684 19.3408L30.6541 17.9267L17.9266 30.6552L19.3408 32.0693ZM32.0684 19.3408L30.6541 20.755L36.3573 26.4582L37.7715 25.0439L39.1857 23.6297L33.4826 17.9266L32.0684 19.3408ZM37.7715 25.0439L38.8573 26.7235C42.6498 24.2719 46.8938 22.4625 51.4371 21.4448L51 19.4932L50.5629 17.5415C45.5498 18.6644 40.8676 20.6609 36.6857 23.3643L37.7715 25.0439ZM51 19.4932H53V11.5H51H49V19.4932H51ZM51 11.5V13.5H69V11.5V9.5H51V11.5ZM69 11.5H67V19.4932H69H71V11.5H69Z" fill="black" mask="url(#path-1-inside-1_616_149)"/>
<circle cx="60" cy="59.5" r="29" stroke="black" stroke-width="2"/>
<path d="M59.8994 59.1203L45.8912 50.3989L59.8994 41.6774L73.9076 50.3989L59.8994 59.1203Z" stroke="black" stroke-width="2"/>
<path d="M59.8994 59.3994V76.8994M59.8994 76.8994L74.8994 67.6618V50.3994M59.8994 76.8994L44.8994 67.6618V50.3994" stroke="black" stroke-width="2"/>
</svg>
